<svg viewBox="0 0 276 84" version="1.1" xmlns="http://www.w3.org/2000/svg"><path fill="rgb(32,37,90)" stroke="rgb(32,37,90)" stroke-width="1" opacity="1" d="M 162.5 3 L 161.5 5 L 162.5 3 Z " /><path fill="rgb(32,37,90)" stroke="rgb(32,37,90)" stroke-width="1" opacity="1" d="M 167.5 3 L 171 5.5 L 168.5 4 L 167.5 3 Z " /><path fill="rgb(32,37,90)" stroke="rgb(32,37,90)" stroke-width="1" opacity="1" d="M 162.5 6 L 163 8 L 161 7.5 L 162.5 6 Z " /><path fill="rgb(32,37,90)" stroke="rgb(32,37,90)" stroke-width="1" opacity="1" d="M 29.5 12 L 28.5 14 L 29.5 12 Z " /><path fill="rgb(32,37,90)" stroke="rgb(32,37,90)" stroke-width="1" opacity="1" d="M 166.5 12 L 163.5 16 L 166.5 12 Z " /><path fill="rgb(32,37,90)" stroke="rgb(32,37,90)" stroke-width="1" opacity="1" d="M 42.5 13 L 43 48.5 L 42 48.5 L 42.5 13 Z " /><path fill="rgb(32,37,90)" stroke="rgb(32,37,90)" stroke-width="1" opacity="1" d="M 48.5 13 L 46.5 16 L 48.5 13 Z " /><path fill="rgb(32,37,90)" stroke="rgb(32,37,90)" stroke-width="1" opacity="1" d="M 61.5 13 L 62 38.5 L 61 38.5 L 61.5 13 Z " /><path fill="rgb(32,37,90)" stroke="rgb(32,37,90)" stroke-width="1" opacity="1" d="M 1.5 15 L 2 52.5 L 1 52.5 L 1.5 15 Z " /><path fill="rgb(32,37,90)" stroke="rgb(32,37,90)" stroke-width="1" opacity="1" d="M 66.5 16 L 67 39.5 L 65 40.5 L 66 39.5 L 66.5 16 Z " /><path fill="rgb(32,37,90)" stroke="rgb(32,37,90)" stroke-width="1" opacity="1" d="M 136.5 17 L 145 17.5 L 136.5 18 L 136.5 17 Z " /><path fill="rgb(32,37,90)" stroke="rgb(32,37,90)" stroke-width="1" opacity="1" d="M 150.5 18 L 156 18.5 L 150.5 19 L 150.5 18 Z " /><path fill="rgb(32,37,90)" stroke="rgb(32,37,90)" stroke-width="1" opacity="1" d="M 87.5 25 L 98 25.5 L 87.5 26 L 87.5 25 Z " /><path fill="rgb(32,37,90)" stroke="rgb(32,37,90)" stroke-width="1" opacity="1" d="M 114.5 26 L 112.5 29 L 114.5 26 Z " /><path fill="rgb(32,37,90)" stroke="rgb(32,37,90)" stroke-width="1" opacity="1" d="M 96.5 27 L 95.5 29 L 96.5 27 Z " /><path fill="rgb(32,37,90)" stroke="rgb(32,37,90)" stroke-width="1" opacity="1" d="M 161.5 29 L 160.5 31 L 161.5 29 Z " /><path fill="rgb(32,37,90)" stroke="rgb(32,37,90)" stroke-width="1" opacity="1" d="M 121.5 31 L 122 33 L 118 32.5 L 121.5 31 Z " /><path fill="rgb(32,37,90)" stroke="rgb(32,37,90)" stroke-width="1" opacity="1" d="M 172.5 31 L 171.5 33 L 172.5 31 Z " /><path fill="rgb(32,37,90)" stroke="rgb(32,37,90)" stroke-width="1" opacity="1" d="M 193.5 31 L 192.5 33 L 193.5 31 Z " /><path fill="rgb(32,37,90)" stroke="rgb(32,37,90)" stroke-width="1" opacity="1" d="M 109.5 32 L 107.5 35 L 109.5 32 Z " /><path fill="rgb(32,37,90)" stroke="rgb(32,37,90)" stroke-width="1" opacity="1" d="M 185.5 32 L 186 58.5 L 185 58.5 L 185.5 32 Z " /><path fill="rgb(32,37,90)" stroke="rgb(32,37,90)" stroke-width="1" opacity="1" d="M 272.5 32 L 273 41.5 L 272 41.5 L 272.5 32 Z " /><path fill="rgb(32,37,90)" stroke="rgb(32,37,90)" stroke-width="1" opacity="1" d="M 91.5 33 L 90.5 35 L 91.5 33 Z " /><path fill="rgb(32,37,90)" stroke="rgb(32,37,90)" stroke-width="1" opacity="1" d="M 208.5 34 L 209 43.5 L 208 43.5 L 208.5 34 Z " /><path fill="rgb(32,37,90)" stroke="rgb(32,37,90)" stroke-width="1" opacity="1" d="M 169.5 35 L 170 63.5 L 169 63.5 L 169.5 35 Z " /><path fill="rgb(32,37,90)" stroke="rgb(32,37,90)" stroke-width="1" opacity="1" d="M 190.5 35 L 191 58.5 L 189 59.5 L 190 58.5 L 190.5 35 Z " /><path fill="rgb(32,37,90)" stroke="rgb(32,37,90)" stroke-width="1" opacity="1" d="M 26.5 36 L 25.5 38 L 26.5 36 Z " /><path fill="rgb(32,37,90)" stroke="rgb(32,37,90)" stroke-width="1" opacity="1" d="M 104.5 38 L 109 39.5 L 103.5 40 L 104.5 38 Z " /><path fill="rgb(32,37,90)" stroke="rgb(32,37,90)" stroke-width="1" opacity="1" d="M 16.5 39 L 17 48.5 L 16 48.5 L 16.5 39 Z " /><path fill="rgb(32,37,90)" stroke="rgb(32,37,90)" stroke-width="1" opacity="1" d="M 86.5 39 L 85.5 41 L 86.5 39 Z " /><path fill="rgb(32,37,90)" stroke="rgb(32,37,90)" stroke-width="1" opacity="1" d="M 236.5 41 L 235.5 43 L 236.5 41 Z " /><path fill="rgb(32,37,90)" stroke="rgb(32,37,90)" stroke-width="1" opacity="1" d="M 130.5 42 L 131 63.5 L 130 63.5 L 130 47.5 L 129 46.5 L 130.5 42 Z " /><path fill="rgb(32,37,90)" stroke="rgb(32,37,90)" stroke-width="1" opacity="1" d="M 271.5 43 L 270.5 45 L 271.5 43 Z " /><path fill="rgb(32,37,90)" stroke="rgb(32,37,90)" stroke-width="1" opacity="1" d="M 210.5 44 L 216 44 L 216 59 L 212 58.5 L 215 58 L 215 45 L 210.5 45 L 210.5 44 Z " /><path fill="rgb(32,37,90)" stroke="rgb(32,37,90)" stroke-width="1" opacity="1" d="M 231.5 44 L 234 44.5 L 231.5 45 L 231.5 44 Z " /><path fill="rgb(32,37,90)" stroke="rgb(32,37,90)" stroke-width="1" opacity="1" d="M 242.5 44 L 254 44.5 Q 252.8 47.3 251.5 45 L 242.5 45 L 242.5 44 Z " /><path fill="rgb(32,37,90)" stroke="rgb(32,37,90)" stroke-width="1" opacity="1" d="M 151.5 45 L 152 59.5 L 151 59.5 L 151.5 45 Z " /><path fill="rgb(32,37,90)" stroke="rgb(32,37,90)" stroke-width="1" opacity="1" d="M 80.5 46 L 78.5 49 L 80.5 46 Z " /><path fill="rgb(32,37,90)" stroke="rgb(32,37,90)" stroke-width="1" opacity="1" d="M 267.5 48 L 265.5 51 L 267.5 48 Z " /><path fill="rgb(32,37,90)" stroke="rgb(32,37,90)" stroke-width="1" opacity="1" d="M 47.5 49 L 49.5 52 L 47.5 49 Z " /><path fill="rgb(32,37,90)" stroke="rgb(32,37,90)" stroke-width="1" opacity="1" d="M 249.5 49 L 247.5 52 L 249.5 49 Z " /><path fill="rgb(32,37,90)" stroke="rgb(32,37,90)" stroke-width="1" opacity="1" d="M 76.5 50 L 75.5 52 L 76.5 50 Z " /><path fill="rgb(32,37,90)" stroke="rgb(32,37,90)" stroke-width="1" opacity="1" d="M 262.5 54 L 260.5 57 L 262.5 54 Z " /><path fill="rgb(32,37,90)" stroke="rgb(32,37,90)" stroke-width="1" opacity="1" d="M 105.5 55 L 106 63.5 L 105 63.5 L 105.5 55 Z " /><path fill="rgb(32,37,90)" stroke="rgb(32,37,90)" stroke-width="1" opacity="1" d="M 244.5 55 L 242.5 58 L 244.5 55 Z " /><path fill="rgb(32,37,90)" stroke="rgb(32,37,90)" stroke-width="1" opacity="1" d="M 231.5 58 L 237 58.5 L 231.5 59 L 231.5 58 Z " /><path fill="rgb(32,37,90)" stroke="rgb(32,37,90)" stroke-width="1" opacity="1" d="M 259.5 58 L 272 58.5 L 259.5 59 L 259.5 58 Z " /><path fill="rgb(32,37,90)" stroke="rgb(32,37,90)" stroke-width="1" opacity="1" d="M 273.5 60 L 274 67.5 L 273 67.5 L 273.5 60 Z " /><path fill="rgb(32,37,90)" stroke="rgb(32,37,90)" stroke-width="1" opacity="1" d="M 208.5 62 L 209 71.5 L 208 71.5 L 208.5 62 Z " /><path fill="rgb(32,37,90)" stroke="rgb(32,37,90)" stroke-width="1" opacity="1" d="M 170.5 67 L 171.5 69 L 170.5 67 Z " /><path fill="rgb(32,37,90)" stroke="rgb(32,37,90)" stroke-width="1" opacity="1" d="M 132.5 68 L 133.5 70 L 132.5 68 Z " /><path fill="rgb(32,37,90)" stroke="rgb(32,37,90)" stroke-width="1" opacity="1" d="M 237.5 68 L 236.5 70 L 237.5 68 Z " /><path fill="rgb(32,37,90)" stroke="rgb(32,37,90)" stroke-width="1" opacity="1" d="M 271.5 69 L 270.5 71 L 271.5 69 Z " /><path fill="rgb(32,37,90)" stroke="rgb(32,37,90)" stroke-width="1" opacity="1" d="M 90.5 70 L 89.5 72 L 90.5 70 Z " /><path fill="rgb(32,37,90)" stroke="rgb(32,37,90)" stroke-width="1" opacity="1" d="M 116.5 71 L 112.5 76 L 116.5 71 Z " /><path fill="rgb(32,37,90)" stroke="rgb(32,37,90)" stroke-width="1" opacity="1" d="M 157.5 71 L 156.5 73 L 157.5 71 Z " /><path fill="rgb(32,37,90)" stroke="rgb(32,37,90)" stroke-width="1" opacity="1" d="M 97.5 81 L 101 81.5 L 97.5 82 L 97.5 81 Z " /><path fill="rgb(124,32,175)" stroke="rgb(124,32,175)" stroke-width="1" opacity="1" d="M 168.5 4 L 170.5 7 L 168.5 4 Z " /><path fill="rgb(124,32,175)" stroke="rgb(124,32,175)" stroke-width="1" opacity="1" d="M 163.5 5 L 166 5.5 L 163.5 6 L 163.5 5 Z " /><path fill="rgb(124,32,175)" stroke="rgb(124,32,175)" stroke-width="1" opacity="1" d="M 85.5 16 L 86 24.5 L 85 24.5 L 85.5 16 Z " /><path fill="rgb(124,32,175)" stroke="rgb(124,32,175)" stroke-width="1" opacity="1" d="M 147.5 18 L 150 18.5 L 147.5 19 L 147.5 18 Z " /><path fill="rgb(124,32,175)" stroke="rgb(124,32,175)" stroke-width="1" opacity="1" d="M 24.5 20 L 23.5 22 L 24.5 20 Z " /><path fill="rgb(124,32,175)" stroke="rgb(124,32,175)" stroke-width="1" opacity="1" d="M 127.5 21 L 124.5 25 L 127.5 21 Z " /><path fill="rgb(124,32,175)" stroke="rgb(124,32,175)" stroke-width="1" opacity="1" d="M 167.5 23 L 162.5 29 L 167.5 23 Z " /><path fill="rgb(124,32,175)" stroke="rgb(124,32,175)" stroke-width="1" opacity="1" d="M 155.5 33 L 154.5 35 L 155.5 33 Z " /><path fill="rgb(124,32,175)" stroke="rgb(124,32,175)" stroke-width="1" opacity="1" d="M 171.5 33 L 170.5 35 L 171.5 33 Z " /><path fill="rgb(124,32,175)" stroke="rgb(124,32,175)" stroke-width="1" opacity="1" d="M 27.5 35 L 28 51.5 L 27 51.5 L 27.5 35 Z " /><path fill="rgb(124,32,175)" stroke="rgb(124,32,175)" stroke-width="1" opacity="1" d="M 112.5 35 L 109.5 39 L 112.5 35 Z " /><path fill="rgb(124,32,175)" stroke="rgb(124,32,175)" stroke-width="1" opacity="1" d="M 129.5 41 L 130 45.5 L 129 45.5 L 129.5 41 Z " /><path fill="rgb(124,32,175)" stroke="rgb(124,32,175)" stroke-width="1" opacity="1" d="M 84.5 43 L 85 51.5 L 84 51.5 L 84.5 43 Z " /><path fill="rgb(124,32,175)" stroke="rgb(124,32,175)" stroke-width="1" opacity="1" d="M 46.5 44 L 47 46.5 L 46 46.5 L 46.5 44 Z " /><path fill="rgb(124,32,175)" stroke="rgb(124,32,175)" stroke-width="1" opacity="1" d="M 240.5 61 L 241 70.5 L 240 70.5 L 240.5 61 Z " /><path fill="rgb(124,32,175)" stroke="rgb(124,32,175)" stroke-width="1" opacity="1" d="M 119.5 67 L 117.5 70 L 119.5 67 Z " /><path fill="rgb(124,32,175)" stroke="rgb(124,32,175)" stroke-width="1" opacity="1" d="M 162.5 67 L 160.5 70 L 162.5 67 Z " /><path fill="rgb(124,32,175)" stroke="rgb(124,32,175)" stroke-width="1" opacity="1" d="M 102.5 72 L 99.5 76 L 102.5 72 Z " /><path fill="rgb(124,32,175)" stroke="rgb(124,32,175)" stroke-width="1" opacity="1" d="M 141.5 72 L 142 75.5 L 141 75.5 L 141.5 72 Z " /><path fill="rgb(124,32,175)" stroke="rgb(124,32,175)" stroke-width="1" opacity="1" d="M 91.5 73 L 94 76.5 L 91 74.5 L 91.5 73 Z " /><path fill="rgb(124,32,175)" stroke="rgb(124,32,175)" stroke-width="1" opacity="1" d="M 110.5 76 L 109.5 78 L 110.5 76 Z " /><path fill="rgb(124,32,175)" stroke="rgb(124,32,175)" stroke-width="1" opacity="1" d="M 90.5 77 L 92.5 80 L 90.5 77 Z " /><path fill="rgb(120,67,230)" stroke="rgb(120,67,230)" stroke-width="1" opacity="1" d="M 4.5 14 L 14.5 14 L 16 15.5 L 21.5 25 Q 24.1 25.8 23 22.5 L 28.5 14 L 39.5 14 L 40 14.5 L 40 52 L 29 52 L 29 34.5 L 27.5 35 Q 25.3 34.3 26 36.5 Q 25 40 19.5 39 L 17 37.5 L 16.5 39 L 15.5 33 L 15 49.5 L 14 52 L 4.5 52 L 3 50.5 L 3 15.5 L 4.5 14 Z " /><path fill="rgb(120,67,230)" stroke="rgb(120,67,230)" stroke-width="1" opacity="1" d="M 48.5 14 L 59 14 L 59 40.5 Q 60 44 65.5 43 L 68 42 L 68 15.5 L 69.5 14 L 78.5 14 L 80 15.5 L 80 44.5 L 75.5 51 Q 69.4 54.4 58.5 53 L 49 48.5 L 47 42.5 L 47 15.5 L 48.5 14 Z " /><path fill="rgb(120,67,230)" stroke="rgb(120,67,230)" stroke-width="1" opacity="1" d="M 88.5 14 L 113.5 14 L 115 15.5 L 115 25.5 L 101 41.5 L 116 42 L 116 50.5 L 114.5 52 L 86 52 L 86 41.5 L 89.5 36 L 93 33.5 L 94.5 30 L 98 27.5 L 99 24.5 L 87 24 L 87 15.5 L 88.5 14 Z " /><path fill="rgb(120,67,230)" stroke="rgb(120,67,230)" stroke-width="1" opacity="1" d="M 158.5 31 L 159 33 L 164 36.5 L 165 39.5 L 165 61.5 L 161.5 68 L 154 70 L 154 75 L 143 75 L 143 70 L 140.5 70 L 134 66.5 L 132 62.5 L 132 42.5 L 133.5 41 L 139.5 41 L 146.5 39 L 158 33 L 158.5 31 Z M 148 41 L 147 42 L 144 43 L 144 60 L 146 61 L 152 61 L 153 59 L 153 42 L 148 41 Z " /><path fill="rgb(120,67,230)" stroke="rgb(120,67,230)" stroke-width="1" opacity="1" d="M 172 32 L 183 32 L 183 58.5 Q 184 62 189.5 61 L 192 58.5 L 192 34.5 L 193 32 L 202.5 32 L 204 33.5 L 204 62.5 L 200.5 69 L 193.5 71 L 182.5 71 L 173 66.5 L 171 60.5 L 171 34.5 L 172 32 Z " /><path fill="rgb(120,67,230)" stroke="rgb(120,67,230)" stroke-width="1" opacity="1" d="M 211 32 L 236 32 L 236 42 L 229 42 L 229 60 L 236 60 L 236 70 L 211.5 70 L 210 68.5 Q 209.3 62.4 211 60 L 217 59.5 L 217 57.5 L 217 42 L 211.5 42 Q 208.5 40.5 210 34.5 L 211 32 Z " /><path fill="rgb(120,67,230)" stroke="rgb(120,67,230)" stroke-width="1" opacity="1" d="M 243 32 L 270 32 L 270 43.5 L 257 59.5 L 271 60 L 271 70 L 242 70 L 242 61.5 L 241 60.5 L 255 42 L 243.5 42 L 242 40.5 Q 241.3 34.4 243 32 Z " /><path fill="rgb(120,67,230)" stroke="rgb(120,67,230)" stroke-width="1" opacity="1" d="M 109.5 39 L 116 39.5 L 109.5 40 L 109.5 39 Z " /><path fill="rgb(120,67,230)" stroke="rgb(120,67,230)" stroke-width="1" opacity="1" d="M 117.5 40 L 118 48.5 L 117 48.5 L 117.5 40 Z " /><path fill="rgb(226,5,236)" stroke="rgb(226,5,236)" stroke-width="1" opacity="1" d="M 166.5 5 L 167.5 7 L 166.5 5 Z " /><path fill="rgb(226,5,236)" stroke="rgb(226,5,236)" stroke-width="1" opacity="1" d="M 168.5 8 L 169 10.5 L 168 10.5 L 168.5 8 Z " /><path fill="rgb(226,5,236)" stroke="rgb(226,5,236)" stroke-width="1" opacity="1" d="M 171.5 10 L 172 14.5 L 171 14.5 L 171.5 10 Z " /><path fill="rgb(226,5,236)" stroke="rgb(226,5,236)" stroke-width="1" opacity="1" d="M 166.5 13 L 163.5 17 L 166.5 13 Z " /><path fill="rgb(226,5,236)" stroke="rgb(226,5,236)" stroke-width="1" opacity="1" d="M 86.5 15 L 87 22.5 L 86 22.5 L 86.5 15 Z " /><path fill="rgb(226,5,236)" stroke="rgb(226,5,236)" stroke-width="1" opacity="1" d="M 46.5 16 L 47 42.5 L 48 45.5 L 47 45.5 L 46 43.5 L 46.5 16 Z " /><path fill="rgb(226,5,236)" stroke="rgb(226,5,236)" stroke-width="1" opacity="1" d="M 67.5 16 L 68 39.5 L 67 39.5 L 67.5 16 Z " /><path fill="rgb(226,5,236)" stroke="rgb(226,5,236)" stroke-width="1" opacity="1" d="M 143.5 18 L 147 18.5 L 143.5 19 L 143.5 18 Z " /><path fill="rgb(226,5,236)" stroke="rgb(226,5,236)" stroke-width="1" opacity="1" d="M 129.5 20 L 128.5 22 L 129.5 20 Z " /><path fill="rgb(226,5,236)" stroke="rgb(226,5,236)" stroke-width="1" opacity="1" d="M 161.5 28 L 159.5 31 L 161.5 28 Z " /><path fill="rgb(226,5,236)" stroke="rgb(226,5,236)" stroke-width="1" opacity="1" d="M 122.5 29 L 123 32.5 L 122 32.5 L 122.5 29 Z " /><path fill="rgb(226,5,236)" stroke="rgb(226,5,236)" stroke-width="1" opacity="1" d="M 157.5 31 L 156.5 33 L 157.5 31 Z " /><path fill="rgb(226,5,236)" stroke="rgb(226,5,236)" stroke-width="1" opacity="1" d="M 154.5 33 L 153.5 35 L 154.5 33 Z " /><path fill="rgb(226,5,236)" stroke="rgb(226,5,236)" stroke-width="1" opacity="1" d="M 28.5 34 L 29 50.5 L 28 50.5 L 28.5 34 Z " /><path fill="rgb(226,5,236)" stroke="rgb(226,5,236)" stroke-width="1" opacity="1" d="M 170.5 35 L 171 60.5 L 172 63.5 L 170 64.5 L 170.5 35 Z " /><path fill="rgb(226,5,236)" stroke="rgb(226,5,236)" stroke-width="1" opacity="1" d="M 241.5 35 L 243 41.5 L 241 42.5 L 241.5 35 Z " /><path fill="rgb(226,5,236)" stroke="rgb(226,5,236)" stroke-width="1" opacity="1" d="M 17.5 37 L 18.5 39 L 17.5 37 Z " /><path fill="rgb(226,5,236)" stroke="rgb(226,5,236)" stroke-width="1" opacity="1" d="M 86.5 40 L 85.5 42 L 86.5 40 Z " /><path fill="rgb(226,5,236)" stroke="rgb(226,5,236)" stroke-width="1" opacity="1" d="M 129.5 40 L 132 40.5 L 132 62.5 Q 134.3 63.7 131.5 65 L 131 41 L 129.5 40 Z " /><path fill="rgb(226,5,236)" stroke="rgb(226,5,236)" stroke-width="1" opacity="1" d="M 133.5 40 L 138 40.5 L 133.5 41 L 133.5 40 Z " /><path fill="rgb(226,5,236)" stroke="rgb(226,5,236)" stroke-width="1" opacity="1" d="M 147.5 41 L 151 41.5 L 147.5 42 L 147.5 41 Z " /><path fill="rgb(226,5,236)" stroke="rgb(226,5,236)" stroke-width="1" opacity="1" d="M 152.5 45 L 153 58.5 L 152 58.5 L 152.5 45 Z " /><path fill="rgb(226,5,236)" stroke="rgb(226,5,236)" stroke-width="1" opacity="1" d="M 216.5 45 L 217 57.5 L 216 57.5 L 216.5 45 Z " /><path fill="rgb(226,5,236)" stroke="rgb(226,5,236)" stroke-width="1" opacity="1" d="M 48.5 49 Q 50.3 52.1 52 50.5 L 50.5 52 L 48.5 49 Z " /><path fill="rgb(226,5,236)" stroke="rgb(226,5,236)" stroke-width="1" opacity="1" d="M 3.5 51 L 2.5 53 L 3.5 51 Z " /><path fill="rgb(226,5,236)" stroke="rgb(226,5,236)" stroke-width="1" opacity="1" d="M 56.5 52 L 59 53.5 L 57.5 54 L 56.5 52 Z " /><path fill="rgb(226,5,236)" stroke="rgb(226,5,236)" stroke-width="1" opacity="1" d="M 241.5 61 L 242 69.5 L 241 69.5 L 241.5 61 Z " /><path fill="rgb(226,5,236)" stroke="rgb(226,5,236)" stroke-width="1" opacity="1" d="M 120.5 65 L 119.5 67 L 120.5 65 Z " /><path fill="rgb(226,5,236)" stroke="rgb(226,5,236)" stroke-width="1" opacity="1" d="M 133.5 65 L 132.5 67 L 133.5 65 Z " /><path fill="rgb(226,5,236)" stroke="rgb(226,5,236)" stroke-width="1" opacity="1" d="M 133.5 68 L 134.5 70 L 133.5 68 Z " /><path fill="rgb(226,5,236)" stroke="rgb(226,5,236)" stroke-width="1" opacity="1" d="M 157.5 69 Q 159.8 68.3 159 70.5 L 156 70.5 L 157.5 69 Z " /><path fill="rgb(226,5,236)" stroke="rgb(226,5,236)" stroke-width="1" opacity="1" d="M 91.5 70 L 93 70.5 L 91.5 73 Q 88.5 71.5 91.5 70 Z " /><path fill="rgb(226,5,236)" stroke="rgb(226,5,236)" stroke-width="1" opacity="1" d="M 116.5 70 L 111.5 76 L 116.5 70 Z " /><path fill="rgb(226,5,236)" stroke="rgb(226,5,236)" stroke-width="1" opacity="1" d="M 142.5 70 L 143 74.5 L 142 74.5 L 142.5 70 Z " /><path fill="rgb(226,5,236)" stroke="rgb(226,5,236)" stroke-width="1" opacity="1" d="M 194.5 70 Q 196.8 69.3 196 71.5 L 194.5 70 Z " /><path fill="rgb(226,5,236)" stroke="rgb(226,5,236)" stroke-width="1" opacity="1" d="M 189.5 72 L 192 72.5 L 189.5 73 L 189.5 72 Z " /><path fill="rgb(226,5,236)" stroke="rgb(226,5,236)" stroke-width="1" opacity="1" d="M 102.5 73 L 101.5 75 L 102.5 73 Z " /><path fill="rgb(226,5,236)" stroke="rgb(226,5,236)" stroke-width="1" opacity="1" d="M 91.5 75 L 92.5 77 L 91.5 75 Z " /><path fill="rgb(226,5,236)" stroke="rgb(226,5,236)" stroke-width="1" opacity="1" d="M 94.5 77 L 97 77.5 L 94.5 78 L 94.5 77 Z " /><path fill="rgb(0,20,46)" stroke="rgb(0,20,46)" stroke-width="1" opacity="1" d="M 164.5 2 L 167 2.5 L 164.5 3 L 164.5 2 Z " /><path fill="rgb(0,20,46)" stroke="rgb(0,20,46)" stroke-width="1" opacity="1" d="M 161.5 8 Q 163.8 7.3 163 9.5 L 161.5 8 Z " /><path fill="rgb(0,20,46)" stroke="rgb(0,20,46)" stroke-width="1" opacity="1" d="M 172.5 12 L 173 14.5 L 172 14.5 L 172.5 12 Z " /><path fill="rgb(0,20,46)" stroke="rgb(0,20,46)" stroke-width="1" opacity="1" d="M 170.5 19 L 171 20.5 L 169 21.5 L 170.5 19 Z " /><path fill="rgb(0,20,46)" stroke="rgb(0,20,46)" stroke-width="1" opacity="1" d="M 125.5 22 L 124.5 24 L 125.5 22 Z " /><path fill="rgb(0,20,46)" stroke="rgb(0,20,46)" stroke-width="1" opacity="1" d="M 168.5 23 L 163.5 29 L 168.5 23 Z " /><path fill="rgb(0,20,46)" stroke="rgb(0,20,46)" stroke-width="1" opacity="1" d="M 111.5 35 L 109.5 38 L 111.5 35 Z " /><path fill="rgb(0,20,46)" stroke="rgb(0,20,46)" stroke-width="1" opacity="1" d="M 122.5 64 L 121.5 66 L 122.5 64 Z " /><path fill="rgb(0,20,46)" stroke="rgb(0,20,46)" stroke-width="1" opacity="1" d="M 119.5 68 L 117.5 71 L 119.5 68 Z " /><path fill="rgb(0,20,46)" stroke="rgb(0,20,46)" stroke-width="1" opacity="1" d="M 111.5 76 L 110.5 78 L 111.5 76 Z " /><path fill="rgb(0,20,46)" stroke="rgb(0,20,46)" stroke-width="1" opacity="1" d="M 89.5 77 L 91.5 80 L 89.5 77 Z " /><path fill="rgb(1,22,50)" stroke="rgb(1,22,50)" stroke-width="1" opacity="1" d="M 0 0 L 44.5 0 L 45.5 1 L 46.5 0 L 276 0 L 276 84 L 160 84 L 159.5 82 L 159 84 L 0.5 84 L 0 83.5 L 0 69.5 L 0 67.5 Q -1.8 61.2 1 59.5 L 0 58.5 L 0 35.5 L 1 35.5 L 1 53 L 12.5 53 L 15 52 Q 18.5 48.7 17 40 Q 24.5 41.8 26.5 37 L 27 53 L 30.5 54 L 41 52 L 43 48.5 L 43 13.5 L 41.5 12 L 29.5 12 L 22.5 22 L 16.5 12 L 4.5 12 L 4 13.5 L 0 15 L 0 0 Z M 165 2 L 161 5 Q 160 9 163 10 L 163 6 L 167 8 L 166 13 Q 163 17 158 18 L 148 18 L 147 17 Q 131 15 126 22 Q 121 25 121 32 L 117 32 L 109 38 L 109 39 L 105 39 L 117 24 L 117 12 L 88 12 L 87 15 L 85 16 L 85 25 L 88 26 L 97 27 L 84 43 L 84 53 L 105 53 Q 107 66 102 73 L 98 76 L 93 76 L 92 72 L 97 72 L 92 69 L 88 74 L 89 78 L 96 82 Q 106 83 111 78 Q 124 68 130 49 L 130 64 L 132 69 L 138 72 L 141 72 L 142 77 L 153 77 L 154 74 L 166 66 L 167 63 L 167 38 L 163 32 Q 160 33 161 31 L 164 29 Q 171 24 173 15 Q 174 8 171 6 Q 169 2 165 2 Z M 50 12 L 46 16 L 46 48 L 47 50 L 55 54 L 71 54 L 76 52 L 82 45 L 82 12 L 69 12 L 66 17 L 66 40 L 62 40 L 62 14 L 61 12 L 50 12 Z M 173 31 L 169 36 L 169 64 L 170 68 Q 173 72 179 73 L 194 73 L 199 71 L 206 63 L 206 31 L 194 31 L 190 36 L 190 59 L 186 59 L 186 33 L 185 31 L 173 31 Z M 212 31 L 210 33 L 210 34 L 208 35 L 208 44 L 211 45 L 215 45 L 215 58 Q 211 57 210 61 L 210 62 L 208 63 L 208 72 L 235 72 L 235 70 L 237 70 L 238 69 L 238 60 Q 236 57 231 58 L 232 55 L 231 54 L 231 45 L 234 45 L 238 41 L 238 31 L 212 31 Z M 245 31 L 242 32 Q 240 35 241 44 L 243 45 L 252 45 L 240 61 L 240 72 L 270 72 Q 276 70 274 61 L 272 58 L 260 58 L 272 44 Q 275 40 273 33 L 272 31 L 245 31 Z " /><path fill="rgb(1,22,50)" stroke="rgb(1,22,50)" stroke-width="1" opacity="1" d="M 0.5 16 L 1 33.5 L 0 33.5 L 0.5 16 Z " /><path fill="rgb(1,22,50)" stroke="rgb(1,22,50)" stroke-width="1" opacity="1" d="M 146 44 L 151 44.5 L 151 60 L 146 59 L 146 44 Z " /><path fill="rgb(13,214,234)" stroke="rgb(13,214,234)" stroke-width="1" opacity="1" d="M 5.5 12 L 16.5 12 L 18 13.5 L 23 25 L 20 23.5 L 14.5 14 L 4 13.5 L 5.5 12 Z " /><path fill="rgb(13,214,234)" stroke="rgb(13,214,234)" stroke-width="1" opacity="1" d="M 30.5 12 L 41.5 12 L 42 12.5 L 42 50 L 40 49.5 L 40 14 L 29.5 14 L 30.5 12 Z " /><path fill="rgb(13,214,234)" stroke="rgb(13,214,234)" stroke-width="1" opacity="1" d="M 49 12 L 61 12 L 61 38.5 L 65.5 41 L 68 40 Q 69.1 42.7 66.5 42 L 61.5 43 L 59 40.5 L 59 14 L 49.5 14 L 49 12 Z " /><path fill="rgb(13,214,234)" stroke="rgb(13,214,234)" stroke-width="1" opacity="1" d="M 70.5 12 L 80.5 12 L 82 13.5 L 82 42.5 L 79.5 47 L 79 45.5 L 80 44.5 L 80 15.5 L 78.5 14 L 69 13.5 L 70.5 12 Z " /><path fill="rgb(13,214,234)" stroke="rgb(13,214,234)" stroke-width="1" opacity="1" d="M 88 12 L 115.5 12 L 117 13.5 Q 118.7 21.7 115.5 25 L 115 15.5 L 113.5 14 L 88.5 14 L 88 12 Z " /><path fill="rgb(13,214,234)" stroke="rgb(13,214,234)" stroke-width="1" opacity="1" d="M 97.5 27 L 95.5 30 L 97.5 27 Z " /><path fill="rgb(13,214,234)" stroke="rgb(13,214,234)" stroke-width="1" opacity="1" d="M 159 31 L 165 34.5 L 167 39.5 L 167 60.5 L 163.5 67 L 163 65.5 L 165 61.5 L 165 39.5 L 160.5 33 Q 157.9 33.7 159 31 Z " /><path fill="rgb(13,214,234)" stroke="rgb(13,214,234)" stroke-width="1" opacity="1" d="M 173.5 31 L 185 31 L 185 58.5 L 188.5 59 L 191 59.5 Q 190 62 185.5 61 L 183 58.5 L 183 32 L 173.5 32 L 173.5 31 Z " /><path fill="rgb(13,214,234)" stroke="rgb(13,214,234)" stroke-width="1" opacity="1" d="M 194.5 31 L 204.5 31 L 206 32.5 L 206 60.5 L 205 64.5 L 202.5 67 L 203 65.5 L 204 62.5 L 204 33.5 L 202.5 32 L 194.5 32 L 194.5 31 Z " /><path fill="rgb(13,214,234)" stroke="rgb(13,214,234)" stroke-width="1" opacity="1" d="M 211.5 31 L 236.5 31 L 238 32.5 L 238 40.5 L 236 41 L 236 32 L 211.5 32 L 211.5 31 Z " /><path fill="rgb(13,214,234)" stroke="rgb(13,214,234)" stroke-width="1" opacity="1" d="M 244.5 31 L 272 31 L 272 42.5 L 259 58.5 L 273 59 L 273 68.5 L 271 69 L 271 60 L 257.5 60 L 259 57.5 L 270 43.5 L 270 32 L 244.5 32 L 244.5 31 Z " /><path fill="rgb(13,214,234)" stroke="rgb(13,214,234)" stroke-width="1" opacity="1" d="M 15.5 33 L 16 49.5 L 15 49.5 L 15.5 33 Z " /><path fill="rgb(13,214,234)" stroke="rgb(13,214,234)" stroke-width="1" opacity="1" d="M 92.5 33 L 90.5 36 L 92.5 33 Z " /><path fill="rgb(13,214,234)" stroke="rgb(13,214,234)" stroke-width="1" opacity="1" d="M 102.5 40 L 117 40 L 117 49.5 L 116 49.5 L 116 42 L 101.5 42 L 102.5 40 Z " /><path fill="rgb(13,214,234)" stroke="rgb(13,214,234)" stroke-width="1" opacity="1" d="M 144 42 L 146 42.5 L 146 58.5 Q 147.4 61.1 152 60.5 L 145.5 61 L 144 59.5 L 144 42 Z " /><path fill="rgb(13,214,234)" stroke="rgb(13,214,234)" stroke-width="1" opacity="1" d="M 229 42 L 231 42.5 L 231 59 L 238 59 L 238 67.5 L 236 68.5 L 236 60 L 229.5 60 L 229 59.5 L 229 42 Z " /><path fill="rgb(13,214,234)" stroke="rgb(13,214,234)" stroke-width="1" opacity="1" d="M 211.5 59 L 217 59.5 L 211.5 60 L 211.5 59 Z " /><path fill="rgb(13,214,234)" stroke="rgb(13,214,234)" stroke-width="1" opacity="1" d="M 154 70 Q 157.7 68.8 156 74 Q 152.3 75.2 154 70 Z " /><path fill="rgb(254,0,254)" stroke="rgb(254,0,254)" stroke-width="1" opacity="1" d="M 163.5 4 Q 169 3 170 6.5 Q 172.3 9.7 171 16.5 Q 168.4 23.9 162.5 28 L 148.5 37 L 132.5 41 L 129 40 Q 126.5 65.3 109.5 77 Q 105.2 80.7 97.5 81 L 90 76.5 L 90.5 72 L 92.5 77 L 96.5 78 L 103 73.5 L 106 67.5 L 106 53 L 86.5 53 L 85 51.5 L 85.5 42 L 86 52 L 116 52 Q 115.3 48.9 118 49.5 L 118 40.5 L 116.5 39 L 110 38.5 Q 113.8 32.5 123 33 Q 121.7 24.6 127.5 22 Q 132.3 17.3 142.5 18 L 143.5 19 L 159.5 19 L 167 13.5 L 169 8.5 L 166.5 5 Q 162.5 5.8 163.5 4 Z " /><path fill="rgb(254,0,254)" stroke="rgb(254,0,254)" stroke-width="1" opacity="1" d="M 2.5 16 L 3 52 L 12 52.5 L 3.5 53 L 2 51.5 L 2.5 16 Z " /><path fill="rgb(254,0,254)" stroke="rgb(254,0,254)" stroke-width="1" opacity="1" d="M 86.5 23 L 87.5 24 L 99 24.5 L 86 25 L 86.5 23 Z " /><path fill="rgb(254,0,254)" stroke="rgb(254,0,254)" stroke-width="1" opacity="1" d="M 191.5 35 L 192 58.5 L 191 58.5 L 191.5 35 Z " /><path fill="rgb(254,0,254)" stroke="rgb(254,0,254)" stroke-width="1" opacity="1" d="M 209.5 35 L 210 42 L 217 42 L 217 44.5 L 215.5 44 Q 210.3 45.3 209 42.5 L 209.5 35 Z " /><path fill="rgb(254,0,254)" stroke="rgb(254,0,254)" stroke-width="1" opacity="1" d="M 17.5 38 L 22 39.5 L 18.5 40 L 17.5 38 Z " /><path fill="rgb(254,0,254)" stroke="rgb(254,0,254)" stroke-width="1" opacity="1" d="M 146.5 42 Q 152.6 40.8 152 43.5 L 152.5 45 Q 151.5 42 146.5 43 L 146.5 42 Z " /><path fill="rgb(254,0,254)" stroke="rgb(254,0,254)" stroke-width="1" opacity="1" d="M 231 42 Q 235.1 40.7 234 44 Q 229.9 45.3 231 42 Z " /><path fill="rgb(254,0,254)" stroke="rgb(254,0,254)" stroke-width="1" opacity="1" d="M 242 42 L 255 42.5 L 253.5 44 L 242 44 L 242 42 Z " /><path fill="rgb(254,0,254)" stroke="rgb(254,0,254)" stroke-width="1" opacity="1" d="M 48.5 48 Q 50.8 51.8 56 52.5 L 53.5 53 L 48.5 48 Z " /><path fill="rgb(254,0,254)" stroke="rgb(254,0,254)" stroke-width="1" opacity="1" d="M 28.5 51 L 29.5 52 L 38 52.5 L 28 53 L 28.5 51 Z " /><path fill="rgb(254,0,254)" stroke="rgb(254,0,254)" stroke-width="1" opacity="1" d="M 59.5 53 L 66 53.5 L 59.5 54 L 59.5 53 Z " /><path fill="rgb(254,0,254)" stroke="rgb(254,0,254)" stroke-width="1" opacity="1" d="M 209.5 63 L 210 70 L 233.5 70 L 234 72 L 210.5 72 L 209 70.5 L 209.5 63 Z " /><path fill="rgb(254,0,254)" stroke="rgb(254,0,254)" stroke-width="1" opacity="1" d="M 132.5 64 L 136.5 69 L 142 70 Q 143.1 72.7 140.5 72 L 133 67.5 L 132.5 64 Z " /><path fill="rgb(254,0,254)" stroke="rgb(254,0,254)" stroke-width="1" opacity="1" d="M 171.5 64 L 175.5 69 L 180.5 71 L 195 71.5 L 183.5 73 Q 182.3 70.8 177.5 72 L 172 68.5 L 171.5 64 Z " /><path fill="rgb(254,0,254)" stroke="rgb(254,0,254)" stroke-width="1" opacity="1" d="M 241 70 L 270 70.5 L 268.5 72 L 241 72 L 241 70 Z " /><path fill="rgb(254,0,254)" stroke="rgb(254,0,254)" stroke-width="1" opacity="1" d="M 142.5 75 L 151.5 75 L 152 77 L 143.5 77 L 142.5 75 Z " /></svg>
